HIERARCHY
ROOT Hips
{
	OFFSET 0.000000 0.000000 0.000000 
	CHANNELS 6 Xposition Yposition Zposition Zrotation Xrotation Yrotation
	JOINT Chest
	{
		OFFSET 0.000000 20.000000 0.000000 
		CHANNELS 3 Zrotation Xrotation Yrotation
		JOINT LeftShoulder
		{
			OFFSET 20.000000 20.000000 0.000000 
			CHANNELS 3 Zrotation Xrotation Yrotation
			JOINT LeftElbow
			{
				OFFSET 0.000000 -25.000000 0.000000 
				CHANNELS 3 Zrotation Xrotation Yrotation
				JOINT LeftWrist
				{
					OFFSET 0.000000 -22.000000 0.000000 
					CHANNELS 3 Zrotation Xrotation Yrotation
					End Site
					{
						OFFSET 0.000000 -15.000000 0.000000 
					}
				}
			}
		}
		JOINT RightShoulder
		{
			OFFSET -20.000000 20.000000 0.000000 
			CHANNELS 3 Zrotation Xrotation Yrotation
			JOINT RightElbow
			{
				OFFSET 0.000000 -25.000000 0.000000 
				CHANNELS 3 Zrotation Xrotation Yrotation
				JOINT RightWrist
				{
					OFFSET 0.000000 -22.000000 0.000000 
					CHANNELS 3 Zrotation Xrotation Yrotation
					End Site
					{
						OFFSET 0.000000 -15.000000 0.000000 
					}
				}
			}
		}
		JOINT Neck
		{
			OFFSET 0.000000 20.099993 0.000000 
			CHANNELS 3 Zrotation Xrotation Yrotation
			End Site
			{
				OFFSET -0.200000 15.899995 10.500000 
			}
		}
	}
	JOINT LeftHip
	{
		OFFSET 10.000000 0.000000 0.000000 
		CHANNELS 3 Zrotation Xrotation Yrotation
		JOINT LeftKnee
		{
			OFFSET 0.000000 -50.000000 0.000000 
			CHANNELS 3 Zrotation Xrotation Yrotation
			JOINT LeftAnkle
			{
				OFFSET 0.000000 -40.000000 0.000000 
				CHANNELS 3 Zrotation Xrotation Yrotation
				End Site
				{
					OFFSET 0.000000 0.000000 20.000000 
				}
			}
		}
	}
	JOINT RightHip
	{
		OFFSET -10.000000 0.000000 0.000000 
		CHANNELS 3 Zrotation Xrotation Yrotation
		JOINT RightKnee
		{
			OFFSET 0.000000 -50.000000 0.000000 
			CHANNELS 3 Zrotation Xrotation Yrotation
			JOINT RightAnkle
			{
				OFFSET 0.000000 -40.000000 0.000000 
				CHANNELS 3 Zrotation Xrotation Yrotation
				End Site
				{
					OFFSET 0.000000 0.000000 20.000000 
				}
			}
		}
	}
}
MOTION
Frames: 14
Frame Time: 0.04170833333333333
0.000000 0.000000 0.000000  0.29743717 17.61309448 -0.22623765  1.00198647 -0.13295202 -2.08561333   8.84480322  -4.30799711 -99.45830822   30.44065404    1.57795027 -116.33907475   5.99741488  -0.81938122 -96.0508717  -12.08929348  -7.38689825 103.59577988 -29.99232308   5.73842873 114.80526825 -6.72539383 -3.40468076 97.10723351 -1.98415131 -0.04002128 -1.37724211  -2.58010322 -16.60575856  93.82787903   15.14958673   -5.18691284 -106.04608496 -39.25543438   0.71081491  32.0797247   -0.88505739 -17.67768387  91.36308968   15.16245881    5.13195369 -103.58571227 -2.51253263 23.32836226  1.9109929  
0.000000 0.000000 0.000000  0.51300232 17.34491161 -0.24745267  0.57924164 -0.11229626 -1.91785057    9.64571579   -4.59820489 -100.34667937   29.96071265    1.69685441 -115.97177119   6.06722836  -0.81494965 -96.12002394 -11.38341941  -7.48660244 102.87162451 -29.60399508   5.39980815 114.63244277 -6.6558518  -3.37659891 97.0310586  -2.43784638 -0.0289234  -1.81274144  -2.76380489 -16.52862054  94.08892881   14.76458438   -5.01786036 -105.61911169 -40.22457991   0.56101458  32.66083736  -1.21891089 -18.0562176   91.90111247   15.60033122    5.21665647 -103.94002875 -173.52413921  -23.07641946    4.92284483 
0.000000 0.000000 0.000000  0.65792942 16.55233648 -0.35863565  0.17262786 -0.10153259 -1.95761093   10.37138147   -4.59801267 -101.09625595   29.471647      1.66711638 -115.64275741   6.31038699  -0.84928118 -96.36618818 -10.88638411  -7.7187813  102.39928234 -28.91951598   4.6410719  114.36976165 -6.63405941 -3.43529589 97.01634676 -2.78487533 -0.00494884 -1.53462449  -2.9027753  -15.85670009  94.20326249   14.90148199   -4.82780191 -105.69587024 -40.01693465   0.82943786  32.45755718  -1.56092921 -17.32748995  92.37456673   15.67090297    4.78300589 -104.0818762  -172.42652467  -22.93149136    5.75733764 
0.000000 0.000000 0.000000  0.7740384  16.14178065 -0.41648396 -0.11145118 -0.08688012 -1.88188158   10.9085039    -4.44247477 -101.61193641   29.46750855    1.57437853 -115.66963117   6.49053129  -0.8523215  -96.54592739 -10.47044138  -7.6610903  101.93201357 -28.72639653   4.12120061 114.38173939 -6.6260095  -3.46180003 97.01156022 -3.06659643  0.0081143  -1.09934156  -3.04207968 -15.52349937  94.35866479   14.94777592   -4.71147702 -105.70623585 -39.73690253   1.35186657  32.13062599  -1.80641721 -16.97333025  92.71532446   15.71070126    4.51826095 -104.16680538 -172.04727905  -22.9740625     6.04157948 
0.000000 0.000000 0.000000  0.84039394 15.84306067 -0.43027392 -0.34017685 -0.07056876 -1.66019191   11.25608639   -4.29752936 -101.93216489   29.60663348    1.4408272  -115.80946349   6.73121837  -0.92855142 -96.79447672 -10.2227757   -7.62919415 101.6537789  -28.68497872   3.62858876 114.4945233  -6.71732171 -3.59381971 97.12491821 -3.22122292  0.01419323 -1.0332472   -3.11947437 -15.25214821  94.43200793   14.97839091   -4.66229907 -105.72132373 -39.68231324   1.34128877  32.10415458  -1.93475105 -16.7002475   92.88203522   15.7558032     4.35844488 -104.23639014 -171.60566261  -22.90325554    6.37724662 
0.000000 0.000000 0.000000  0.89493901 15.47343323 -0.44790149 -0.54597139 -0.0596822  -1.51308176   11.52160375   -4.17041372 -102.17095931   29.66166103    1.29797977 -115.89408976   6.86065494  -1.06897371 -96.94052582  -9.91922435  -7.65684106 101.32866894 -28.62094253   3.08805551 114.60867879 -6.69379503 -3.8782903  97.13995742 -3.32401123  0.01970638 -1.06000062  -3.18178414 -14.91605507  94.47440312   15.01161057   -4.63633873 -105.74579469 -39.74547656   1.12856604  32.20930169  -2.02885253 -16.36856326  92.98981468   15.79593096    4.25087657 -104.29173733 -170.78528126  -22.73335395    7.00225234 
0.000000 0.000000 0.000000  0.92455587 15.42154273 -0.4488362  -0.70740993 -0.05434444 -1.46444747   11.81694555   -4.05634271 -102.44091809   29.83275676    1.23592927 -116.03293427   6.99400738  -1.0401368  -97.06975395  -9.66785438  -7.60126308 101.03919685 -28.87082499   2.6954427  114.90224292 -6.5169819  -3.99582031 96.97035104 -3.27603601  0.0232892  -1.15942512  -3.2088481  -14.86254029  94.50500467   15.01251872   -4.59833857 -105.73541    -39.80370678   1.01796406  32.27807009  -2.06349513 -16.3275376   93.03674996   15.82652742    4.21566872 -104.32473936 -170.62719181  -22.72497545    7.12145285 
0.000000 0.000000 0.000000  0.94039644 15.36182809 -0.44400732 -0.7976635  -0.04965161 -1.38253497   12.06314155   -3.95069984 -102.66185279   30.14056089    1.00858331 -116.32020748   6.99511598  -1.17498667 -97.08787275  -9.54228325  -7.55691693 100.89056891 -29.31742486   2.08604813 115.40258446 -6.47713604 -3.90371151 96.91579658 -3.09953091  0.02482178 -1.36376296  -3.22444264 -14.79332785  94.5174195    15.05738031   -4.58072698 -105.77357124 -39.80058633   0.85547737  32.33086602  -2.08482191 -16.26942176  93.06238186   15.838249      4.17850114 -104.34210629 -170.36550945  -22.72509582    7.31793283 
0.000000 0.000000 0.000000  0.98047083 14.79432189 -0.43896232 -0.79705561 -0.04532644 -1.25835152   12.12865285   -3.64150865 -102.65318839   30.59603885    0.56265624 -116.7818929    7.69251278  -0.9648801  -97.75303777  -9.65849347  -7.45369474 100.99335162 -29.43595359   1.41757903 115.69822885 -7.07902226 -3.93001442 97.55146689 -3.00894464  0.02094114 -1.26821001  -3.25790002 -14.22494313  94.48819623   15.06812425   -4.52280476 -105.76679604 -39.82867      0.6542556   32.41421428  -2.13861604 -15.69973615  93.0855078    15.82703914    4.14548577 -104.33915531 -170.09696893  -22.63566276    7.52403309 
0.000000 0.000000 0.000000  1.01938921 13.03655569 -0.46101096 -0.66275802 -0.05368297 -1.62714271   12.81632945   -2.45610395 -103.04644057   31.71403984   -0.84943931 -118.03322936   8.59886718  -0.58693317 -98.58979946 -10.29739315  -5.8572426  101.30271909 -3.10708555e+01 -7.28172208e-03  1.17300697e+02 -7.12443649 -4.38443028 97.66771345 -3.39865866  0.02883903 -1.09477485  -3.28451024 -12.51155762  94.31136284   15.11537708   -4.37788202 -105.76959497 -40.22023723   0.06495499  32.82886806  -2.31517185 -13.94430993  93.16846453   15.78810462    3.93913677 -104.34732196 -168.59479066  -22.32849863    8.66595149 
0.000000 0.000000 0.000000  1.07685456 11.90091617 -0.48027496 -0.66416957 -0.0467579  -1.73534117   13.84319995   -0.93519238 -103.66633385   33.22236964   -1.72582498 -119.34956798   8.59698533  -0.50697524 -98.57607154 -10.83033675  -4.29893984 101.50004088 -32.84810151  -1.39818531 118.98355054 -7.39943558 -5.18067183 98.08700292 -3.74174496  0.02621789 -0.68303663  -3.28908217 -11.37519857  94.18842869   15.14208528   -4.16556615 -105.73308282 -40.49704996  -0.20874844  33.07287665  -2.50876902 -12.73089819  93.31697986   15.61991919    3.80569478 -104.23037687 -166.5027033   -22.15334182   10.23344046 
0.000000 0.000000 0.000000  1.14168817 11.71434787 -0.45106833 -0.57372091 -0.03459368 -1.29945096   14.44748044    0.49363958 -103.89796304   36.42342766   -2.2853069  -121.54721614   8.84475304  -0.58591191 -98.82949604 -12.4938232   -3.9154115  103.08155253 -35.68212079  -2.60808773 121.22954202 -7.19993032 -4.45918367 97.75903175 -3.29801542  0.01941217 -0.6271179   -2.34114999 -10.34429202  92.90736239   18.53577066   -1.86785359 -108.17056191 -41.40634771  -4.49241417  35.18295836  -2.55395095 -12.68556079  93.37229633   15.99359311    3.90488287 -104.52941769 -166.71508825  -22.3500664    10.06246518 
0.000000 0.000000 0.000000  1.1918816  10.79225412 -0.46231045 -0.82506882 -0.04944052 -2.13459737   15.24566332    2.10794248 -104.2577839    38.30780153   -2.64356412 -122.77643937   8.69491437   0.15121191 -98.57448177 -14.86877785  -2.12827657 104.9144816  -38.32085275  -3.15319774 122.98588018 -10.20701942  -3.99513005 100.7993401  -2.77650203  0.01440049 -0.56913106 -2.09917448 -7.75168923 92.45005656   18.65093584   -1.09432318 -108.04332268 -41.57578612  -5.15081552  35.54506115  -2.58428321 -12.11854629  93.35998155   15.11499803    4.26183861 -103.70851803 -161.96816832  -22.74095543   13.49503846 
0.000000 0.000000 0.000000  1.30174334 10.51937957 -0.8098309  -0.7137265  -0.08020642 -2.90528231   15.19844114    3.41243315 -103.94660672   40.99444128   -2.65627298 -124.23611537   9.01224666   1.56733344 -98.67532747 -15.58852598   1.28534153 104.7409053  -38.4588595   -1.78602569 122.53090788 -11.78961531  -3.57800491 102.30165421 -3.09815243  0.00487139 -0.18405309 -2.17554262 -8.18834669 92.56474054   18.89122448   -1.05505988 -108.24066707 -41.89177333  -4.44220613  35.40697737  -2.60712193 -11.55409035  93.33902372   14.70635287    4.42384818 -103.32749813 -160.30507147  -22.44850849   14.70958779 
